<svg width="1600" height="1020" viewBox="0 0 1600 1020" fill="none" xmlns="http://www.w3.org/2000/svg">
  <defs>
    <linearGradient id="bg" x1="56" y1="42" x2="1548" y2="972" gradientUnits="userSpaceOnUse">
      <stop stop-color="#040812"/>
      <stop offset="1" stop-color="#0B1020"/>
    </linearGradient>
    <linearGradient id="previewBg" x1="404" y1="662" x2="1110" y2="918" gradientUnits="userSpaceOnUse">
      <stop stop-color="#02030A"/>
      <stop offset="1" stop-color="#101326"/>
    </linearGradient>
    <linearGradient id="cta" x1="676" y1="788" x2="836" y2="788" gradientUnits="userSpaceOnUse">
      <stop stop-color="#2B7BFF"/>
      <stop offset="1" stop-color="#FF4E9A"/>
    </linearGradient>
  </defs>

  <rect width="1600" height="1020" rx="36" fill="url(#bg)"/>
  <rect x="72" y="140" width="1456" height="804" rx="28" fill="#060B15" stroke="#182033"/>

  <rect x="120" y="188" width="802" height="142" rx="22" fill="#12192A" stroke="#24304A"/>
  <text x="162" y="246" fill="#DDE4F2" font-family="Courier New, monospace" font-size="24">product: Include a hero section with</text>
  <text x="162" y="284" fill="#DDE4F2" font-family="Courier New, monospace" font-size="24">a headline, description, CTA button,</text>
  <text x="162" y="322" fill="#DDE4F2" font-family="Courier New, monospace" font-size="24">and a features grid below it.</text>

  <text x="120" y="430" fill="#F2F6FF" font-family="Courier New, monospace" font-size="34" font-weight="700">I'll create a modern landing page with a</text>
  <text x="120" y="480" fill="#F2F6FF" font-family="Courier New, monospace" font-size="34" font-weight="700">dark theme, hero section, and feature</text>
  <text x="120" y="530" fill="#F2F6FF" font-family="Courier New, monospace" font-size="34" font-weight="700">cards grid. Here's my plan:</text>

  <circle cx="138" cy="602" r="10" fill="#3E8E59"/>
  <text x="166" y="612" fill="#7B869E" font-family="Courier New, monospace" font-size="24">Thought for 7s · Exploring files</text>

  <rect x="118" y="664" width="1280" height="304" rx="24" fill="#121722" stroke="#24304A"/>
  <text x="154" y="720" fill="#8E98AF" font-family="Arial, Helvetica, sans-serif" font-size="28" font-weight="700">This is how it could look</text>

  <rect x="146" y="758" width="1224" height="176" rx="20" fill="#F5F5F7"/>
  <rect x="294" y="800" width="928" height="96" rx="18" fill="url(#previewBg)" stroke="#1E2740"/>
  <text x="514" y="860" fill="#F7FBFF" font-family="Arial, Helvetica, sans-serif" font-size="40" font-weight="700">Build faster with AI</text>
  <text x="578" y="888" fill="#8088A2" font-family="Arial, Helvetica, sans-serif" font-size="15">Bloom faster, test better, and ship a clearer product story.</text>
  <rect x="668" y="902" width="176" height="32" rx="16" fill="url(#cta)"/>
  <rect x="332" y="918" width="116" height="52" rx="12" fill="#FCFDFF" stroke="#DBE2EE"/>
  <rect x="480" y="918" width="116" height="52" rx="12" fill="#FCFDFF" stroke="#DBE2EE"/>
  <rect x="628" y="918" width="116" height="52" rx="12" fill="#FCFDFF" stroke="#DBE2EE"/>
  <rect x="776" y="918" width="116" height="52" rx="12" fill="#FCFDFF" stroke="#DBE2EE"/>
  <rect x="924" y="918" width="116" height="52" rx="12" fill="#FCFDFF" stroke="#DBE2EE"/>

</svg>
