<svg width="1600" height="1020" viewBox="0 0 1600 1020" fill="none" xmlns="http://www.w3.org/2000/svg">
  <rect width="1600" height="1020" rx="36" fill="#D9DBE2"/>
  <rect x="48" y="178" width="1504" height="742" rx="30" fill="#2E2E2E" stroke="#555" stroke-width="4"/>
  <rect x="64" y="194" width="732" height="710" rx="22" fill="#1C1D20" stroke="#7C7C7C" stroke-width="3"/>
  <rect x="804" y="194" width="732" height="710" rx="22" fill="#E9E9E9" stroke="#7C7C7C" stroke-width="3"/>
  <rect x="790" y="196" width="12" height="706" rx="6" fill="#666"/>

  <rect x="84" y="214" width="692" height="670" rx="18" fill="#1E1F22"/>
  <rect x="838" y="214" width="664" height="670" rx="18" fill="#F2F2F2"/>

  <path d="M100 258H118" stroke="#E6EBF2" stroke-width="4" stroke-linecap="round"/>
  <path d="M100 280H118" stroke="#E6EBF2" stroke-width="4" stroke-linecap="round"/>
  <circle cx="132" cy="258" r="11" fill="#3C82E7"/>

  <text x="172" y="284" fill="#F0F3F8" font-family="Arial, Helvetica, sans-serif" font-size="32">ChatGPT</text>
  <text x="310" y="284" fill="#A8AFBD" font-family="Arial, Helvetica, sans-serif" font-size="28">Auto</text>
  <path d="M392 270L406 284L420 270" stroke="#A8AFBD" stroke-width="4" stroke-linecap="round" stroke-linejoin="round"/>

  <text x="144" y="504" fill="#E9EDF4" font-family="Arial, Helvetica, sans-serif" font-size="48">Hello. How can I help?</text>

  <g stroke="#E9EDF4" stroke-width="4">
    <rect x="146" y="574" width="24" height="24" rx="6"/>
    <path d="M146 582H132C124.268 582 118 588.268 118 596V610" stroke-linecap="round"/>
    <rect x="200" y="574" width="28" height="28" rx="7"/>
    <path d="M252 588H278" stroke-linecap="round"/>
    <path d="M265 575V601" stroke-linecap="round"/>
    <path d="M324 588C324 580.268 330.268 574 338 574C345.732 574 352 580.268 352 588C352 595.732 345.732 602 338 602C330.268 602 324 595.732 324 588Z"/>
    <path d="M382 588C382 580.268 388.268 574 396 574C403.732 574 410 580.268 410 588C410 595.732 403.732 602 396 602C388.268 602 382 595.732 382 588Z"/>
  </g>
  <circle cx="450" cy="588" r="4" fill="#E9EDF4"/>
  <circle cx="468" cy="588" r="4" fill="#E9EDF4"/>
  <circle cx="486" cy="588" r="4" fill="#E9EDF4"/>

  <rect x="650" y="364" width="88" height="48" rx="24" fill="#18478B"/>
  <text x="680" y="395" fill="#F4F8FF" font-family="Arial, Helvetica, sans-serif" font-size="24">hi :)</text>

  <rect x="142" y="794" width="598" height="72" rx="36" fill="#2F3137" stroke="#46484E"/>
  <path d="M176 830H204" stroke="#DDE4EF" stroke-width="4" stroke-linecap="round"/>
  <path d="M190 816V844" stroke="#DDE4EF" stroke-width="4" stroke-linecap="round"/>
  <text x="236" y="842" fill="#C4CAD6" font-family="Arial, Helvetica, sans-serif" font-size="24">Ask anything</text>
  <circle cx="696" cy="830" r="34" fill="#316ED9"/>
  <rect x="640" y="816" width="24" height="24" rx="12" stroke="#E5EBF6" stroke-width="4"/>
  <path d="M652 808V820" stroke="#E5EBF6" stroke-width="4" stroke-linecap="round"/>
  <path d="M644 846C648 852 656 852 660 846" stroke="#E5EBF6" stroke-width="4" stroke-linecap="round"/>
  <text x="292" y="904" fill="#C2C8D4" font-family="Arial, Helvetica, sans-serif" font-size="16">ChatGPT can make mistakes. Check important info. See Cookie Preferences.</text>

  <text x="894" y="286" fill="#2A2A2A" font-family="Georgia, Times New Roman, serif" font-size="30" font-weight="700">maxiboy</text>
  <text x="1292" y="286" fill="#666" font-family="Georgia, Times New Roman, serif" font-size="18">Posts</text>
  <text x="1370" y="286" fill="#666" font-family="Georgia, Times New Roman, serif" font-size="18">Books</text>
  <text x="1452" y="286" fill="#666" font-family="Georgia, Times New Roman, serif" font-size="18">Projects</text>

  <text x="894" y="518" fill="#222" font-family="Georgia, Times New Roman, serif" font-size="74" font-weight="700">hi, i’m maximilian</text>
  <text x="894" y="626" fill="#666" font-family="Georgia, Times New Roman, serif" font-size="52">:)</text>
  <text x="894" y="772" fill="#325FE0" font-family="Georgia, Times New Roman, serif" font-size="28">Posts</text>
  <text x="996" y="772" fill="#325FE0" font-family="Georgia, Times New Roman, serif" font-size="28">Books</text>
  <text x="1106" y="772" fill="#325FE0" font-family="Georgia, Times New Roman, serif" font-size="28">Projects</text>
  <text x="1240" y="772" fill="#325FE0" font-family="Georgia, Times New Roman, serif" font-size="28">Contact</text>
  <text x="894" y="920" fill="#666" font-family="Georgia, Times New Roman, serif" font-size="22">© 2026 Maxiboy</text>

  <rect x="1460" y="950" width="112" height="42" rx="10" fill="#262B34" stroke="#5D6778"/>
  <rect x="1478" y="962" width="24" height="24" rx="4" fill="#101622" stroke="#A9B4C6"/>
  <text x="1486" y="980" fill="#FFFFFF" font-family="Arial, Helvetica, sans-serif" font-size="14">M</text>
  <text x="1512" y="980" fill="#E8EDF8" font-family="Arial, Helvetica, sans-serif" font-size="18">maxiboy.xyz</text>
</svg>
